<svg xmlns="http://www.w3.org/2000/svg" id="Layer_1" viewBox="0 0 362.5 89.2">  
  <path fill="#005190" d="M110.7 79V66h7.9v1.1h-6.7v4.6l.5-.1h6.2v1.1h-6.2l-.4.1-.1.2v4.8h6.7V79h-7.9zM126.6 72.5l4.8 6.5H130l-4.1-5.6-4.1 5.6h-1.4l4.8-6.5-4.8-6.5h1.4l4.1 5.6L130 66h1.4l-4.8 6.5zM142.2 69.4c0 1.8-1.5 3.3-3.3 3.3h-3.7c-.4 0-.5.2-.5.3v6h-1.1V66h5.4c1.7 0 3.2 1.5 3.2 3.4zm-3.4 2.2c1.2 0 2.2-1 2.2-2.2s-1-2.2-2.2-2.2h-4.2v4.5h4.2zM144.1 79V66h7.9v1.1h-6.7v4.6l.5-.1h6.2v1.1h-6.2l-.4.1-.1.2v4.8h6.7V79h-7.9zM162.2 79l-2.5-5.7c-.3-.6-.8-.6-.8-.6H156c-.4 0-.5.2-.5.3v6h-1.1V66h5.4c1.8 0 3.3 1.5 3.3 3.4 0 1.5-1.2 2.9-2.5 3.2l.4.6 2.5 5.7h-1.3zm-6.3-7.4h3.8c1.2 0 2.2-1 2.2-2.2 0-1.2-1-2.2-2.2-2.2h-4.2v4.5l.4-.1zM165.9 66h1.1v13h-1.1V66zM170.3 79V66h7.9v1.1h-6.7v4.6l.5-.1h6.2v1.1H172l-.4.1-.1.2v4.8h6.7V79h-7.9zM189 66v13h-1.5l-5.8-10.6V79h-1.1V66h1.1l6.2 11.3V66h1.1zM191.4 72.5c0-3.5 2.4-6.5 5.3-6.5 1.6 0 3.3 1 4.5 3.1l-1 .6c-1.1-1.8-2.3-2.5-3.6-2.5-2.3 0-4.2 2.4-4.2 5.4 0 3 1.9 5.4 4.2 5.4 1.3 0 2.5-.7 3.6-2.5l1 .6c-1.3 2.1-2.9 3-4.5 3.1-3.2-.2-5.3-3.5-5.3-6.7zM203.4 79V66h7.9v1.1h-6.7v4.6l.5-.1h6.2v1.1h-6.2l-.4.1-.1.2v4.8h6.7V79h-7.9zM227.7 67.1h-4.4V79h-1.1V67.1H218V66h9.7v1.1zM237.2 79v-6.5c-.2.2-.6.2-1 .2h-4.1c-.5 0-1.1.2-1.1.6V79h-1.1V66h1.1v5.8c.2-.2.7-.2 1.1-.2h4.1c.5 0 1.1-.1 1.1-.6v-5h1.1v13h-1.2zM241 79V66h7.9v1.1h-6.7v4.6l.5-.1h6.2v1.1h-6.2l-.4.1-.1.2v4.8h6.7V79H241zM255.5 79l4.5-13h1l4.5 13h-1.2l-1.7-4.8-1.1.2h-2.4c-.9 0-1.1.5-1.1.6l-1.4 4.1h-1.1zm3.2-5.8h2.9l.7-.1-1.8-5.1-1.8 5.2zM271.4 79a4 4 0 0 1-4.2-4.2V66h1.1v8.8a3 3 0 0 0 3 3 3 3 0 0 0 3-3V66h1.1v8.8c0 1.1-.4 2.2-1.2 3s-1.7 1.2-2.8 1.2zM287.3 67.1h-4.4V79h-1.1V67.1h-4.1V66h9.7v1.1zM296.8 79v-6.5c-.2.2-.6.2-1 .2h-4.1c-.5 0-1.1.2-1.1.6V79h-1.1V66h1.1v5.8c.2-.2.7-.2 1.1-.2h4.1c.5 0 1.1-.1 1.1-.6v-5h1.1v13h-1.2zM300.6 79V66h7.9v1.1h-6.7v4.6l.5-.1h6.2v1.1h-6.2l-.4.1-.1.2v4.8h6.7V79h-7.9zM319.3 66v13h-1.5L312 68.4V79h-1.1V66h1.1l6.2 11.3V66h1.1zM331.1 67.1h-4.4V79h-1.1V67.1h-4.1V66h9.7v1.1zM334.2 66h1.1v13h-1.1V66zM338 72.5c0-3.5 2.4-6.5 5.3-6.5 1.6 0 3.3 1 4.5 3.1l-1 .6c-1.1-1.8-2.3-2.5-3.6-2.5-2.3 0-4.2 2.4-4.2 5.4 0 3 1.9 5.4 4.2 5.4 1.3 0 2.5-.7 3.6-2.5l1 .6c-1.3 2.1-2.9 3-4.5 3.1-3.2-.2-5.3-3.5-5.3-6.7z" />
  <g>
    <path fill="#005190" d="M168.5 11.5v1l-3.9 1v41.2l3.9 1v1h-18.3v-1l3.9-1V19.5L139 57.1h-2l-19.6-37.6v34.1l5.1 1.9v1h-12.2v-1l5.1-1.9V13.4l-3.9-1v-1h8c1.2 0 2.3.1 3.2.4.9.3 1.7.7 2.4 1.1.7.5 1.3 1 1.8 1.7l1.4 2.2 14 26.8L153 16.8a8.7 8.7 0 0 1 2.8-4c.6-.5 1.4-.8 2.4-1.1a16 16 0 0 1 3.5-.4h6.8zM182.4 55.5v1h-11.9v-1l5.1-1.9 17.7-42.8h1.9l18.3 43.8 3.2 1v1H209a9 9 0 0 1-5.7-1.6 9.7 9.7 0 0 1-3-3.8l-3.3-7.7h-15.4l-4.2 10.3 5 1.7zm0-13.8h14.1l-7.1-16.9-7 16.9zM254.4 14.4l-5.1-1.9v-1h12.2v1l-5.1 1.9v43.1h-1.9l-29.9-35.1v31.2l5.1 1.9v1h-12.2v-1l5.1-1.9V13.7l-4.5-1.3v-1h6.8a10.6 10.6 0 0 1 5.8 1.5c.7.5 1.3.9 1.8 1.5l1.4 1.5L254.5 40V14.4zM307.8 34c0 3.8-.5 7.1-1.5 10-1 2.9-2.4 5.4-4.2 7.4-1.8 2-4 3.5-6.6 4.5-2.6 1-5.4 1.5-8.6 1.5-3.1 0-6-.5-8.6-1.5-2.6-1-4.8-2.5-6.6-4.5-1.8-2-3.2-4.4-4.2-7.4a31 31 0 0 1-1.5-10c0-3.8.5-7.1 1.5-10 1-2.9 2.4-5.4 4.2-7.4 1.8-2 4-3.5 6.6-4.5 2.6-1 5.4-1.5 8.6-1.5 3.1 0 6 .5 8.6 1.5 2.6 1 4.8 2.5 6.6 4.5 1.8 2 3.2 4.5 4.2 7.4 1 2.9 1.5 6.2 1.5 10zm-11.2 0c0-4.2-.3-7.8-.9-10.6-.6-2.9-1.3-5.1-2.3-6.9-.9-1.7-2-2.9-3.1-3.6a6.8 6.8 0 0 0-3.4-1.1c-1.1 0-2.3.4-3.4 1.1s-2.2 1.9-3.1 3.6c-.9 1.7-1.7 4-2.3 6.9-.6 2.9-.9 6.4-.9 10.6s.3 7.8.9 10.6c.6 2.9 1.3 5.1 2.3 6.9.9 1.7 2 2.9 3.1 3.6 1.2.7 2.3 1.1 3.4 1.1s2.3-.4 3.4-1.1a8.7 8.7 0 0 0 3.1-3.6c.9-1.7 1.7-4 2.3-6.9.6-2.8.9-6.4.9-10.6zM328.4 55.9a8 8 0 0 0 5.9-2.2 7.8 7.8 0 0 0 2.2-5.9c0-1.7-.6-3.1-1.7-4.3a18.3 18.3 0 0 0-4.2-3.4 89.4 89.4 0 0 0-5.5-3.2c-2-1.1-3.8-2.3-5.5-3.7-1.7-1.4-3.1-3-4.2-4.8-1.1-1.8-1.7-4-1.7-6.6 0-1.5.3-3 1-4.3a9.8 9.8 0 0 1 2.9-3.6 15 15 0 0 1 4.9-2.4c2-.6 4.3-.9 6.9-.9 1.5 0 2.9.2 4.2.7 1.3.5 2.4.9 3.3 1.4 1.1.6 2 1.3 2.8 2.1.3-.6.7-1.1 1.1-1.5l1.1-1.1 1.3-.9h1.6v12.2h-2.6c-.6-2.1-1.4-3.9-2.5-5.6-.9-1.4-2.1-2.7-3.6-3.9a8.5 8.5 0 0 0-5.5-1.8 6 6 0 0 0-2.3.5c-.7.3-1.4.8-1.9 1.4a7.4 7.4 0 0 0-1.9 5.2c0 1.8.6 3.4 1.7 4.7 1.1 1.3 2.5 2.5 4.2 3.6l5.5 3.3c2 1.1 3.8 2.3 5.5 3.6 1.7 1.3 3.1 2.8 4.2 4.5a11.3 11.3 0 0 1 .6 10.8c-.7 1.5-1.8 2.9-3.3 4a14.9 14.9 0 0 1-5.5 2.7 26 26 0 0 1-12.8.4 18 18 0 0 1-3.6-1.4c-1.2-.6-2.2-1.3-3-2.1-.3.6-.7 1.1-1.1 1.5l-1.1 1.1-1.3.9H313V44.6h2.6c.6 2.1 1.5 4 2.7 5.7l1.7 2.1c.6.7 1.4 1.3 2.2 1.8.8.5 1.8.9 2.8 1.3 1.1.2 2.2.4 3.4.4z" />
  </g>
  <g>
    <path fill="#005190" d="M362.5 89.2H94V0h268.5v89.2zm-267-1.5H361V1.5H95.5v86.2z" />
  </g>
  <path fill="#005190" d="M0 0v89.2h89.5V0H0zm81.1 17.9l-4.8 1.2v51.2l4.8 1.2v1.2H58.2v-1.2l4.8-1.2V26.7L44.2 73.5h-2.4L17.4 26.7v42.4l6.4 2.4v1.2H8.6v-1.2l6.4-2.4v-50l-4.8-1.2v-1.2h10c1.5 0 2.8.2 3.9.5a10.3 10.3 0 0 1 5.2 3.5c.6.8 1.2 1.7 1.7 2.8l17.4 33.4 13.4-33.4a11.3 11.3 0 0 1 3.5-5c.8-.6 1.8-1 3-1.3a18 18 0 0 1 4.3-.4H81v1.1z" />
</svg>
