<svg xmlns="http://www.w3.org/2000/svg" id="Layer_1" viewBox="0 0 70 20"> 
  <path fill="#fff" fill-rule="evenodd" d="M3 1.5h64v17H3z" clip-rule="evenodd"/>
  <path fill="#5bcbf5" d="M0 0h70v20H0z"/>
  <path fill="#da2128" d="M51.7 15.4c0-.1.1-.1 0 0l.1-.2v-5-.2l-.1-.1-.5-.1-.5.1-.1.1v5.2l.1.2.5.1.5-.1zm-3.7 0l.7-.4.4-.6.1-.8v-3.5l-.1-.2-.5-.1-.5.1-.1.1v3.7l-.1.4-.3.4-.6.1-.5-.1-.3-.2-.2-.3-.1-.4v-3.5l-.1-.2-.5-.1-.5.1-.1.1v3.7l.1.8.4.6.7.4 1 .1 1.1-.2zm-6.2 0c.1-.1.1-.1 0 0l.1-.2v-4.3h1.4l.1-.1.1-.3v-.3-.1l-.1-.1h-.1H39l-.1.1-.1.3v.5l.1.1H40.5v4.3l.1.2.5.1.7-.2zM19.1 6.7h4.4c.4 0 .8.1.9.7.1.7.1 1.1-.7 1.2l-1.4.1c1 6.4 6.9 8.5 10.1 1.6.5-1.1.7-1.3 1.3-1.2.8.2.9.6.5 1.7-2.8 8.5-12.1 9.3-14-2l-1.1.2c-.9.1-.9-.7-.9-1.1 0-.9.3-1.2.9-1.2zM35 2.6c.9 0 1.6.7 1.6 1.6 0 .9-.7 1.6-1.6 1.6-.9 0-1.6-.7-1.6-1.6-.1-.8.7-1.6 1.6-1.6z"/>
</svg>
