<svg xmlns="http://www.w3.org/2000/svg" xmlns:xlink="http://www.w3.org/1999/xlink"><defs></defs><symbol viewBox="0 0 362.5 89.2" id="manos">  
  <path fill="#005190" d="M110.7 79V66h7.9v1.1h-6.7v4.6l.5-.1h6.2v1.1h-6.2l-.4.1-.1.2v4.8h6.7V79h-7.9zM126.6 72.5l4.8 6.5H130l-4.1-5.6-4.1 5.6h-1.4l4.8-6.5-4.8-6.5h1.4l4.1 5.6L130 66h1.4l-4.8 6.5zM142.2 69.4c0 1.8-1.5 3.3-3.3 3.3h-3.7c-.4 0-.5.2-.5.3v6h-1.1V66h5.4c1.7 0 3.2 1.5 3.2 3.4zm-3.4 2.2c1.2 0 2.2-1 2.2-2.2s-1-2.2-2.2-2.2h-4.2v4.5h4.2zM144.1 79V66h7.9v1.1h-6.7v4.6l.5-.1h6.2v1.1h-6.2l-.4.1-.1.2v4.8h6.7V79h-7.9zM162.2 79l-2.5-5.7c-.3-.6-.8-.6-.8-.6H156c-.4 0-.5.2-.5.3v6h-1.1V66h5.4c1.8 0 3.3 1.5 3.3 3.4 0 1.5-1.2 2.9-2.5 3.2l.4.6 2.5 5.7h-1.3zm-6.3-7.4h3.8c1.2 0 2.2-1 2.2-2.2 0-1.2-1-2.2-2.2-2.2h-4.2v4.5l.4-.1zM165.9 66h1.1v13h-1.1V66zM170.3 79V66h7.9v1.1h-6.7v4.6l.5-.1h6.2v1.1H172l-.4.1-.1.2v4.8h6.7V79h-7.9zM189 66v13h-1.5l-5.8-10.6V79h-1.1V66h1.1l6.2 11.3V66h1.1zM191.4 72.5c0-3.5 2.4-6.5 5.3-6.5 1.6 0 3.3 1 4.5 3.1l-1 .6c-1.1-1.8-2.3-2.5-3.6-2.5-2.3 0-4.2 2.4-4.2 5.4 0 3 1.9 5.4 4.2 5.4 1.3 0 2.5-.7 3.6-2.5l1 .6c-1.3 2.1-2.9 3-4.5 3.1-3.2-.2-5.3-3.5-5.3-6.7zM203.4 79V66h7.9v1.1h-6.7v4.6l.5-.1h6.2v1.1h-6.2l-.4.1-.1.2v4.8h6.7V79h-7.9zM227.7 67.1h-4.4V79h-1.1V67.1H218V66h9.7v1.1zM237.2 79v-6.5c-.2.2-.6.2-1 .2h-4.1c-.5 0-1.1.2-1.1.6V79h-1.1V66h1.1v5.8c.2-.2.7-.2 1.1-.2h4.1c.5 0 1.1-.1 1.1-.6v-5h1.1v13h-1.2zM241 79V66h7.9v1.1h-6.7v4.6l.5-.1h6.2v1.1h-6.2l-.4.1-.1.2v4.8h6.7V79H241zM255.5 79l4.5-13h1l4.5 13h-1.2l-1.7-4.8-1.1.2h-2.4c-.9 0-1.1.5-1.1.6l-1.4 4.1h-1.1zm3.2-5.8h2.9l.7-.1-1.8-5.1-1.8 5.2zM271.4 79a4 4 0 0 1-4.2-4.2V66h1.1v8.8a3 3 0 0 0 3 3 3 3 0 0 0 3-3V66h1.1v8.8c0 1.1-.4 2.2-1.2 3s-1.7 1.2-2.8 1.2zM287.3 67.1h-4.4V79h-1.1V67.1h-4.1V66h9.7v1.1zM296.8 79v-6.5c-.2.2-.6.2-1 .2h-4.1c-.5 0-1.1.2-1.1.6V79h-1.1V66h1.1v5.8c.2-.2.7-.2 1.1-.2h4.1c.5 0 1.1-.1 1.1-.6v-5h1.1v13h-1.2zM300.6 79V66h7.9v1.1h-6.7v4.6l.5-.1h6.2v1.1h-6.2l-.4.1-.1.2v4.8h6.7V79h-7.9zM319.3 66v13h-1.5L312 68.4V79h-1.1V66h1.1l6.2 11.3V66h1.1zM331.1 67.1h-4.4V79h-1.1V67.1h-4.1V66h9.7v1.1zM334.2 66h1.1v13h-1.1V66zM338 72.5c0-3.5 2.4-6.5 5.3-6.5 1.6 0 3.3 1 4.5 3.1l-1 .6c-1.1-1.8-2.3-2.5-3.6-2.5-2.3 0-4.2 2.4-4.2 5.4 0 3 1.9 5.4 4.2 5.4 1.3 0 2.5-.7 3.6-2.5l1 .6c-1.3 2.1-2.9 3-4.5 3.1-3.2-.2-5.3-3.5-5.3-6.7z" />
  <g>
    <path fill="#005190" d="M168.5 11.5v1l-3.9 1v41.2l3.9 1v1h-18.3v-1l3.9-1V19.5L139 57.1h-2l-19.6-37.6v34.1l5.1 1.9v1h-12.2v-1l5.1-1.9V13.4l-3.9-1v-1h8c1.2 0 2.3.1 3.2.4.9.3 1.7.7 2.4 1.1.7.5 1.3 1 1.8 1.7l1.4 2.2 14 26.8L153 16.8a8.7 8.7 0 0 1 2.8-4c.6-.5 1.4-.8 2.4-1.1a16 16 0 0 1 3.5-.4h6.8zM182.4 55.5v1h-11.9v-1l5.1-1.9 17.7-42.8h1.9l18.3 43.8 3.2 1v1H209a9 9 0 0 1-5.7-1.6 9.7 9.7 0 0 1-3-3.8l-3.3-7.7h-15.4l-4.2 10.3 5 1.7zm0-13.8h14.1l-7.1-16.9-7 16.9zM254.4 14.4l-5.1-1.9v-1h12.2v1l-5.1 1.9v43.1h-1.9l-29.9-35.1v31.2l5.1 1.9v1h-12.2v-1l5.1-1.9V13.7l-4.5-1.3v-1h6.8a10.6 10.6 0 0 1 5.8 1.5c.7.5 1.3.9 1.8 1.5l1.4 1.5L254.5 40V14.4zM307.8 34c0 3.8-.5 7.1-1.5 10-1 2.9-2.4 5.4-4.2 7.4-1.8 2-4 3.5-6.6 4.5-2.6 1-5.4 1.5-8.6 1.5-3.1 0-6-.5-8.6-1.5-2.6-1-4.8-2.5-6.6-4.5-1.8-2-3.2-4.4-4.2-7.4a31 31 0 0 1-1.5-10c0-3.8.5-7.1 1.5-10 1-2.9 2.4-5.4 4.2-7.4 1.8-2 4-3.5 6.6-4.5 2.6-1 5.4-1.5 8.6-1.5 3.1 0 6 .5 8.6 1.5 2.6 1 4.8 2.5 6.6 4.5 1.8 2 3.2 4.5 4.2 7.4 1 2.9 1.5 6.2 1.5 10zm-11.2 0c0-4.2-.3-7.8-.9-10.6-.6-2.9-1.3-5.1-2.3-6.9-.9-1.7-2-2.9-3.1-3.6a6.8 6.8 0 0 0-3.4-1.1c-1.1 0-2.3.4-3.4 1.1s-2.2 1.9-3.1 3.6c-.9 1.7-1.7 4-2.3 6.9-.6 2.9-.9 6.4-.9 10.6s.3 7.8.9 10.6c.6 2.9 1.3 5.1 2.3 6.9.9 1.7 2 2.9 3.1 3.6 1.2.7 2.3 1.1 3.4 1.1s2.3-.4 3.4-1.1a8.7 8.7 0 0 0 3.1-3.6c.9-1.7 1.7-4 2.3-6.9.6-2.8.9-6.4.9-10.6zM328.4 55.9a8 8 0 0 0 5.9-2.2 7.8 7.8 0 0 0 2.2-5.9c0-1.7-.6-3.1-1.7-4.3a18.3 18.3 0 0 0-4.2-3.4 89.4 89.4 0 0 0-5.5-3.2c-2-1.1-3.8-2.3-5.5-3.7-1.7-1.4-3.1-3-4.2-4.8-1.1-1.8-1.7-4-1.7-6.6 0-1.5.3-3 1-4.3a9.8 9.8 0 0 1 2.9-3.6 15 15 0 0 1 4.9-2.4c2-.6 4.3-.9 6.9-.9 1.5 0 2.9.2 4.2.7 1.3.5 2.4.9 3.3 1.4 1.1.6 2 1.3 2.8 2.1.3-.6.7-1.1 1.1-1.5l1.1-1.1 1.3-.9h1.6v12.2h-2.6c-.6-2.1-1.4-3.9-2.5-5.6-.9-1.4-2.1-2.7-3.6-3.9a8.5 8.5 0 0 0-5.5-1.8 6 6 0 0 0-2.3.5c-.7.3-1.4.8-1.9 1.4a7.4 7.4 0 0 0-1.9 5.2c0 1.8.6 3.4 1.7 4.7 1.1 1.3 2.5 2.5 4.2 3.6l5.5 3.3c2 1.1 3.8 2.3 5.5 3.6 1.7 1.3 3.1 2.8 4.2 4.5a11.3 11.3 0 0 1 .6 10.8c-.7 1.5-1.8 2.9-3.3 4a14.9 14.9 0 0 1-5.5 2.7 26 26 0 0 1-12.8.4 18 18 0 0 1-3.6-1.4c-1.2-.6-2.2-1.3-3-2.1-.3.6-.7 1.1-1.1 1.5l-1.1 1.1-1.3.9H313V44.6h2.6c.6 2.1 1.5 4 2.7 5.7l1.7 2.1c.6.7 1.4 1.3 2.2 1.8.8.5 1.8.9 2.8 1.3 1.1.2 2.2.4 3.4.4z" />
  </g>
  <g>
    <path fill="#005190" d="M362.5 89.2H94V0h268.5v89.2zm-267-1.5H361V1.5H95.5v86.2z" />
  </g>
  <path fill="#005190" d="M0 0v89.2h89.5V0H0zm81.1 17.9l-4.8 1.2v51.2l4.8 1.2v1.2H58.2v-1.2l4.8-1.2V26.7L44.2 73.5h-2.4L17.4 26.7v42.4l6.4 2.4v1.2H8.6v-1.2l6.4-2.4v-50l-4.8-1.2v-1.2h10c1.5 0 2.8.2 3.9.5a10.3 10.3 0 0 1 5.2 3.5c.6.8 1.2 1.7 1.7 2.8l17.4 33.4 13.4-33.4a11.3 11.3 0 0 1 3.5-5c.8-.6 1.8-1 3-1.3a18 18 0 0 1 4.3-.4H81v1.1z" />
</symbol><symbol viewBox="0 0 70 20" id="thomas-cook">
  <path fill="#fff" fill-rule="evenodd" d="M0 0h70v20H0z" clip-rule="evenodd" />
  <path fill="#6f767b" d="M45.2 11.3c-.4-.1-.8-.3-.8-.5 0-.3.2-.4.7-.4.4 0 .8.1 1.2.3l.2-.7c-.4-.3-1-.4-1.6-.4-1 0-1.7.5-1.7 1.3 0 .9.7 1.1 1.3 1.4.4.2.9.4.9.7 0 .3-.3.5-.7.5-.4 0-.9-.1-1.3-.4l-.2.7c.4.3 1.1.5 1.7.5.6 0 1-.1 1.3-.4.3-.3.5-.6.5-1.1-.1-1-.8-1.3-1.5-1.5zm-2.6 1.3v-1.1c0-.7-.2-1.1-.5-1.5-.4-.4-.8-.5-1.3-.5-.6 0-1.3.2-1.8.5l.2.7c.4-.2.8-.4 1.2-.4.3 0 .6.1.8.2.2.2.2.3.2.8-.3-.1-.6-.1-.9-.1h-.1c-1 0-1.7.6-1.7 1.5 0 .4.1.8.4 1 .3.3.7.4 1.1.4.4 0 .9-.2 1.3-.4 0 .1.1.2.1.3h1v-1.4zm-1.2-.6v1.1c-.3.2-.6.4-.8.4-.5 0-.7-.3-.7-.7 0-.5.3-.8.8-.8h.2c.1-.1.3-.1.5 0zM16.6 8.6h1.8V14h1.3V8.6h1.7v-.9h-4.8zm6.6 5.4v-3.4c.3-.2.6-.3.8-.3.5 0 .7.3.7 1V14h1.2v-2.6c0-.6-.1-1.1-.4-1.4-.3-.3-.6-.4-1-.4s-.9.1-1.3.4V7.8H22v6.3h1.2zm13.7 0h1.2v-2.6c0-.7-.1-1.1-.4-1.4-.3-.3-.6-.4-1-.4-.5 0-1 .2-1.5.6l-.1-.1c-.3-.3-.6-.4-1-.4-.5 0-.9.2-1.4.5 0-.1-.1-.2-.1-.2v-.1h-1V14h1.2v-3.4c.3-.2.6-.3.8-.3.2 0 .3.1.4.2.2.2.2.4.2.8V14h1.2v-3.4c.3-.2.6-.3.8-.3.2 0 .3.1.4.2.2.2.2.4.2.8V14zm-8.2.1c.7 0 1.3-.2 1.7-.6.4-.4.6-1 .6-1.7s-.2-1.3-.6-1.7c-.4-.4-1-.7-1.7-.7-1.4 0-2.2.9-2.2 2.3s.9 2.4 2.2 2.4zm0-3.9c.6 0 1 .5 1 1.6s-.3 1.6-1 1.6c-.6 0-1-.5-1-1.6.1-1 .4-1.6 1-1.6zM53.5 13c-.5.2-1.1.3-1.5.3-.5 0-.9-.1-1.1-.4-.4-.4-.6-1-.6-2 0-1.1.3-1.7.6-2 .3-.3.6-.4 1.1-.4.4 0 1 .1 1.5.4l.2-.7c-.6-.3-1.3-.5-1.9-.5-.9 0-1.5.3-2 .8-.6.6-.9 1.4-.9 2.4 0 1.1.3 2 .9 2.5.5.4 1.2.7 2 .7.5 0 1.3-.1 1.9-.4l-.2-.7zm2.7-3.5c-1.4 0-2.2.9-2.2 2.3s.8 2.3 2.2 2.3c1.4 0 2.2-.9 2.2-2.3s-.8-2.3-2.2-2.3zm0 3.9c-.6 0-1-.5-1-1.6s.3-1.6 1-1.6c.6 0 1 .5 1 1.6s-.4 1.6-1 1.6zM68 9.6h-1.3l-1.6 1.7V7.7h-1.3V14h1.3v-1.9l1.5 1.9H68l-2-2.4zm-7-.1c-1.4 0-2.2.9-2.2 2.3s.8 2.3 2.2 2.3c1.4 0 2.2-.9 2.2-2.3s-.8-2.3-2.2-2.3zm0 3.9c-.6 0-1-.5-1-1.6s.3-1.6 1-1.6c.6 0 1 .5 1 1.6s-.3 1.6-1 1.6z" />
  
  <path fill="url(#thomas-cook_a)" d="M6.4 10.1l1.8-1.9-1.8-1.8c-1-1-2.6-1-3.6 0s-1 2.7 0 3.7 2.6 1 3.6 0z" />
  
  <path fill="url(#thomas-cook_b)" d="M6.2 9.9L8 8.1 6.4 6.4c-1-1-2.6-1-3.6 0s-1 2.7 0 3.7c.3.3 2 1.2 3.4-.2z" />
  
  <path fill="url(#thomas-cook_c)" d="M6.4 10.1l1.8-1.8-1.8-1.9c-1-1-2.6-1-3.6 0s-1 2.7 0 3.7 2.6 1 3.6 0z" />
  
  <path fill="url(#thomas-cook_d)" d="M13.7 6.4c-1-1-2.6-1-3.6 0l-3.6 3.7c-1 1-2.6 1-3.6 0l3.6 3.7c1 1 2.6 1 3.6 0l3.6-3.7c1-1 1-2.7 0-3.7z" />
  
  <path fill="url(#thomas-cook_e)" d="M13.7 6.4c-1-1-2.6-1-3.6 0l-3.6 3.7c-1 1-2.6 1-3.6 0l3.6 3.7c1 1 2.6 1 3.6 0l3.6-3.7c1-1 1-2.7 0-3.7z" />
  
  <path fill="url(#thomas-cook_f)" d="M6.5 6.3c-.5-.4-1-.7-1.6-.7.6 0 1.1.3 1.5.7l1.8 1.9-1.7-1.9z" />
  <path fill="#fffbc8" d="M4.7 5.5c-.7 0-1.3.2-1.8.7-.2.1-.2.2-.4.5v.1c.1-.1.2-.2.3-.4.5-.5 1.2-.8 1.8-.8.7 0 1.3.3 1.8.8l1.8 1.8.2-.2c-.1 0-1.9-1.8-1.9-1.8-.5-.5-1.1-.7-1.8-.7z" />
  
  <path fill="url(#thomas-cook_g)" d="M13.2 6c-.7-.6-2.2-1-3.3.1L6.2 9.9c-1 1-2.6 1-3.6 0l.4.4c1.1.8 2.5.7 3.4-.2L10 6.4c1.1-1.1 2.3-1 3.5-.2 0 .1-.1-.1-.3-.2z" />
  <g opacity=".8">
    
    <path fill="url(#thomas-cook_h)" d="M13.7 6.4c-1-1-2.6-1-3.6 0l-3.6 3.7c-1 1-2.6 1-3.6 0l3.6 3.7c1 1 2.6 1 3.6 0l3.6-3.7c1-1 1-2.7 0-3.7z" />
  </g>
  
  <path fill="url(#thomas-cook_i)" d="M12.7 5.8s.2 0 .3.1c.1 0 .2.1.5.4.3.3.7.7.8 1.2.4 1.2-.2 2.1-.5 2.5 0 0-.1.1-.1.2-.8.8-3 3.1-3.6 3.6-.9.9-2.5 1.1-3.6.1C6 13.4 3 10.3 3 10.3s.1.1.2.1.2.1.2.1l3.4 3.4c.7.6 2.1.9 3.2-.2l3.7-3.7c.5-.5.9-1.5.6-2.5-.2-.5-.4-.9-.8-1.2-.4-.4-.8-.5-.8-.5z" />
  <g opacity=".9">
    
    <path fill="url(#thomas-cook_j)" d="M8.2 14.5c.8 0 1.4-.4 1.7-.7l3.8-3.8c.5-.5.8-1.6.6-2.4-.3-.7-.5-1.1-1.3-1.4C12.2 6 10.3 8 10.3 8l-2.5 3.3-1.7.9s-1.2-.1-1.1.1c.1.1.3.3.6.7.3.4.8.9 1.2 1.1.4.2.8.4 1.4.4z" />
  </g>
  
  <path fill="url(#thomas-cook_k)" d="M2.5 6.8c.1-.1.2-.2.3-.4 1-1 2.6-1 3.6 0L8 8.1l.1-.1-1.7-1.7c-.8-.8-2.3-1.1-3.4-.1-.3.1-.3.2-.4.4l-.1.2z" />
  
  <path fill="url(#thomas-cook_l)" d="M12.6 5.7c-.2-.1-1.5-.5-2.5.5-1 1.1-1.4 1.6-3.7 3.8-1.2 1.2-2.7 1.1-3.6.1l.1.1c1 1 2.5.9 3.5-.1L10 6.4c1-1 2.1-.9 3-.5.1.1-.1-.1-.4-.2z" />
  
  <path fill="url(#thomas-cook_m)" d="M2.9 6.2s.8 1.9 1.4 2.5c.6.6 1.6 1.5 1.6 1.5s-1.1.8-2.5.2c-.9-.4-1.2-1-1.3-1.6-.4-1.6.8-2.6.8-2.6z" />
  <path fill="none" d="M8.2 14.5c.8 0 1.4-.4 1.7-.7.6-.6 3.3-3.3 3.8-3.9.5-.5.8-1.6.6-2.4-.2-.7-.7-1.5-1.6-1.7C9.8 5.2 10.3 8 10.3 8L7.8 9.3l-1.7 2.9s-1.2-.1-1.1.1c.1.1.3.3.6.7.3.4.8.9 1.2 1.1.4.2.8.4 1.4.4z" />
  <defs>
    <path id="thomas-cook_n" d="M4.7 10.9s.9 0 1.8-1c.7-.6 3.5-3.5 3.5-3.5s3 3.3-.2 5.9c-2.9 2.5-5.1-1.4-5.1-1.4z" />
  </defs>
  
  <g clip-path="url(#thomas-cook_o)">
    
    <path fill="url(#thomas-cook_p)" d="M10.7 9.7c0 1.5-1.2 3.7-3 3.7-1.5 0-3-2.4-3-3.9 0-1.3.8-2.5 2-2.8l1.4 1.5 1.3-1.3c.7.7 1.3 1.9 1.3 2.8z" />
  </g>
  
  <path fill="url(#thomas-cook_q)" d="M3.4 10.6l2.1 2.2s.9 1 1.3 1.2c.4.3.9.3.9.3s-.5-.2-.8-.5c-.3-.2-1.2-1.2-1.2-1.2l-1.8-1.8-.2-.1c-.1 0-.3-.1-.3-.1z" />
  <defs>
    <filter id="thomas-cook_r" width="4.2" height="4.4" x="6.8" y="8.2" filterUnits="userSpaceOnUse">
      <feColorMatrix values="1 0 0 0 0 0 1 0 0 0 0 0 1 0 0 0 0 0 1 0"></feColorMatrix>
    </filter>
  </defs>
  
  
  <path fill="url(#thomas-cook_t)" d="M11 11.8l-.9.9-3.3-3.6.9-.9z" mask="url(#thomas-cook_u)" />
  <defs>
    <filter id="thomas-cook_v" width="3.2" height="5.2" x="6.6" y="8.4" filterUnits="userSpaceOnUse">
      <feColorMatrix values="1 0 0 0 0 0 1 0 0 0 0 0 1 0 0 0 0 0 1 0"></feColorMatrix>
    </filter>
  </defs>
  
  
  <path fill="url(#thomas-cook_x)" d="M9.8 12.7l-1.1.8-2.1-4.6 1.2-.5z" mask="url(#thomas-cook_y)" />
  <defs>
    <filter id="thomas-cook_z" width="4.7" height="2.2" x="3.3" y="7.4" filterUnits="userSpaceOnUse">
      <feColorMatrix values="1 0 0 0 0 0 1 0 0 0 0 0 1 0 0 0 0 0 1 0"></feColorMatrix>
    </filter>
  </defs>
  
  <g mask="url(#thomas-cook_B)" opacity=".62">
    
    <path fill="url(#thomas-cook_C)" d="M3.3 9.6l.1-2.2 4.6.7-1.5 1.5z" />
  </g>
  <defs>
    <filter id="thomas-cook_D" width="3.8" height="3.8" x="4.8" y="5.5" filterUnits="userSpaceOnUse">
      <feColorMatrix values="1 0 0 0 0 0 1 0 0 0 0 0 1 0 0 0 0 0 1 0"></feColorMatrix>
    </filter>
  </defs>
  
  <g mask="url(#thomas-cook_F)" opacity=".37">
    
    <path fill="url(#thomas-cook_G)" d="M6.9 6.6l1.3 1.3.3-.3.1.2-1.4 1.5-2.4-3.8s.6 0 1.1.3c.4.2.5.3 1 .8z" />
  </g>
  <defs>
    <filter id="thomas-cook_H" width="2" height="3.6" x="5.9" y="8.5" filterUnits="userSpaceOnUse">
      <feColorMatrix values="1 0 0 0 0 0 1 0 0 0 0 0 1 0 0 0 0 0 1 0"></feColorMatrix>
    </filter>
  </defs>
  
  
  <path fill="url(#thomas-cook_J)" d="M7.4 12.2l-1.5-.3.5-3.4 1.5.3z" mask="url(#thomas-cook_K)" opacity=".45" />
  <defs>
    <filter id="thomas-cook_L" width="5.2" height="1.5" x="7.2" y="7.8" filterUnits="userSpaceOnUse">
      <feColorMatrix values="1 0 0 0 0 0 1 0 0 0 0 0 1 0 0 0 0 0 1 0"></feColorMatrix>
    </filter>
  </defs>
  
  <g mask="url(#thomas-cook_N)" opacity=".5">
    
    <path fill="url(#thomas-cook_O)" d="M12.3 7.8l.1 1.2-5.1.3-.1-1.2z" />
  </g>
  <defs>
    <filter id="thomas-cook_P" width="4" height="3.7" x="6.2" y="7.5" filterUnits="userSpaceOnUse">
      <feColorMatrix values="1 0 0 0 0 0 1 0 0 0 0 0 1 0 0 0 0 0 1 0"></feColorMatrix>
    </filter>
  </defs>
  
  
  <path fill="url(#thomas-cook_R)" d="M10.3 8.2l-.9 3-3.2-1.3 1.7-1.7.1-.1.6-.6z" mask="url(#thomas-cook_S)" opacity=".75" />
  <defs>
    <filter id="thomas-cook_T" width="3" height="2.9" x="6.2" y="7.9" filterUnits="userSpaceOnUse">
      <feColorMatrix values="1 0 0 0 0 0 1 0 0 0 0 0 1 0 0 0 0 0 1 0"></feColorMatrix>
    </filter>
  </defs>
  
  
  <path fill="url(#thomas-cook_V)" d="M9.2 10.1l-2.4.7-.6-2.3 2.4-.6z" mask="url(#thomas-cook_W)" opacity=".65" />
  <defs>
    <filter id="thomas-cook_X" width="3.8" height="3.4" x="3.8" y="6.3" filterUnits="userSpaceOnUse">
      <feColorMatrix values="1 0 0 0 0 0 1 0 0 0 0 0 1 0 0 0 0 0 1 0"></feColorMatrix>
    </filter>
  </defs>
  
  
  <path fill="url(#thomas-cook_Z)" d="M3.8 8l1-1.7 2.8 1.8-1 1.7z" mask="url(#thomas-cook_aa)" opacity=".37" />
  
  <path fill="url(#thomas-cook_ab)" d="M9.1 8.6c0 .8-1 1.8-1.8 1.8-.9 0-2-1-2-1.8 0-.7.5-2 1.2-2.2L8 8.1l.6-.6c.3.3.5.7.5 1.1z" />
</symbol><radialGradient id="thomas-cook_a" cx="-91.019" cy="11.804" r="3.992" gradientTransform="matrix(-1.3788 -1.144 2.2515 -2.8022 -145.089 -61.817)" gradientUnits="userSpaceOnUse">
    <stop offset="0" stop-color="#fff570" />
    <stop offset=".115" stop-color="#fff062" />
    <stop offset=".719" stop-color="#ffda1c" />
    <stop offset="1" stop-color="#ffd100" />
  </radialGradient><radialGradient id="thomas-cook_b" cx="-91.813" cy="11.683" r="1.376" gradientTransform="matrix(-1.6735 -.6162 1.2127 -3.4012 -162.249 -7.83)" gradientUnits="userSpaceOnUse">
    <stop offset="0" stop-color="#fff200" stop-opacity=".37" />
    <stop offset=".132" stop-color="#fff205" stop-opacity=".321" />
    <stop offset=".285" stop-color="#fff313" stop-opacity=".264" />
    <stop offset=".45" stop-color="#fff42b" stop-opacity=".203" />
    <stop offset=".623" stop-color="#fff54b" stop-opacity=".14" />
    <stop offset=".802" stop-color="#fff676" stop-opacity=".073" />
    <stop offset=".983" stop-color="#fff8a8" stop-opacity=".006" />
    <stop offset="1" stop-color="#fff9ae" stop-opacity="0" />
  </radialGradient><linearGradient id="thomas-cook_c" x1="6.115" x2="2.928" y1="9.638" y2="6.768" gradientUnits="userSpaceOnUse">
    <stop offset="0" stop-color="#fff333" />
    <stop offset=".51" stop-color="#ffd528" />
    <stop offset="1" stop-color="#fbaa19" />
  </linearGradient><radialGradient id="thomas-cook_d" cx="-90.686" cy="13.112" r="3.911" gradientTransform="matrix(1.5039 -.9676 1.0474 1.6811 130.227 -98.198)" gradientUnits="userSpaceOnUse">
    <stop offset="0" stop-color="#fcb333" />
    <stop offset="1" stop-color="#ffe600" />
  </radialGradient><linearGradient id="thomas-cook_e" x1="10.253" x2="8.596" y1="13.147" y2="8.939" gradientUnits="userSpaceOnUse">
    <stop offset="0" stop-color="#ffd400" />
    <stop offset=".138" stop-color="#ffcf03" />
    <stop offset=".417" stop-color="#ffcb05" />
    <stop offset=".501" stop-color="#ffd104" />
    <stop offset="1" stop-color="#fff200" />
  </linearGradient><linearGradient id="thomas-cook_f" x1="8.708" x2="5.086" y1="6.717" y2="6.912" gradientUnits="userSpaceOnUse">
    <stop offset="0" stop-color="#fff346" />
    <stop offset=".006" stop-color="#fff347" />
    <stop offset=".129" stop-color="#ffe863" />
    <stop offset=".237" stop-color="#ffe173" />
    <stop offset=".319" stop-color="#ffdf79" />
    <stop offset=".524" stop-color="#ffe877" />
    <stop offset=".65" stop-color="#fffbd0" />
    <stop offset=".812" stop-color="#ffd679" />
    <stop offset="1" stop-color="#ffca28" />
  </linearGradient><linearGradient id="thomas-cook_g" x1="3.667" x2="12.248" y1="10.873" y2="5.498" gradientUnits="userSpaceOnUse">
    <stop offset="0" stop-color="#ffe65b" />
    <stop offset=".023" stop-color="#ffe966" />
    <stop offset=".111" stop-color="#fff08c" />
    <stop offset=".193" stop-color="#fff5a7" />
    <stop offset=".265" stop-color="#fff9b8" />
    <stop offset=".319" stop-color="#fffabe" />
    <stop offset=".595" stop-color="#fff272" />
    <stop offset=".841" stop-color="#fffac0" />
    <stop offset="1" stop-color="#ffdc5d" />
  </linearGradient><linearGradient id="thomas-cook_h" x1="-87.228" x2="-91.951" y1="10.354" y2="13.752" gradientTransform="matrix(1.78 0 0 1.8088 168.998 -12.125)" gradientUnits="userSpaceOnUse">
      <stop offset="0" stop-color="#fff68d" stop-opacity=".97" />
      <stop offset=".063" stop-color="#fff676" stop-opacity=".877" />
      <stop offset=".195" stop-color="#fff44c" stop-opacity=".682" />
      <stop offset=".324" stop-color="#fff32b" stop-opacity=".492" />
      <stop offset=".446" stop-color="#fff313" stop-opacity=".311" />
      <stop offset=".56" stop-color="#fff205" stop-opacity=".143" />
      <stop offset=".656" stop-color="#fff200" stop-opacity="0" />
      <stop offset=".908" stop-color="#f47b20" stop-opacity="0" />
      <stop offset="1" stop-color="#ed1c24" />
    </linearGradient><linearGradient id="thomas-cook_i" x1="11.913" x2="6.971" y1="11.967" y2="7.025" gradientUnits="userSpaceOnUse">
    <stop offset="0" stop-color="#f26122" stop-opacity=".77" />
    <stop offset=".552" stop-color="#ffda00" stop-opacity=".19" />
    <stop offset=".626" stop-color="#fff200" stop-opacity="0" />
    <stop offset=".64" stop-color="#fddd06" stop-opacity=".058" />
    <stop offset=".667" stop-color="#fabb11" stop-opacity=".169" />
    <stop offset=".693" stop-color="#f8a218" stop-opacity=".274" />
    <stop offset=".717" stop-color="#f7941d" stop-opacity=".37" />
    <stop offset=".736" stop-color="#f78e1e" stop-opacity=".45" />
    <stop offset="1" stop-color="#faa41a" />
  </linearGradient><linearGradient id="thomas-cook_j" x1="11.237" x2="9.835" y1="13.313" y2="10.306" gradientUnits="userSpaceOnUse">
      <stop offset="0" stop-color="#f58220" stop-opacity=".82" />
      <stop offset=".182" stop-color="#f8a258" stop-opacity=".671" />
      <stop offset=".394" stop-color="#fac393" stop-opacity=".497" />
      <stop offset=".59" stop-color="#fcddc2" stop-opacity=".336" />
      <stop offset=".762" stop-color="#feefe3" stop-opacity=".195" />
      <stop offset=".905" stop-color="#fffbf8" stop-opacity=".078" />
      <stop offset="1" stop-color="#fff" stop-opacity="0" />
    </linearGradient><linearGradient id="thomas-cook_k" x1="3.891" x2="7.324" y1="6.174" y2="8.304" gradientUnits="userSpaceOnUse">
    <stop offset="0" stop-color="#ffeea2" />
    <stop offset=".099" stop-color="#fff09e" />
    <stop offset=".537" stop-color="#fff593" />
    <stop offset="1" stop-color="#fff78f" />
  </linearGradient><linearGradient id="thomas-cook_l" x1="3.659" x2="12.023" y1="10.774" y2="5.536" gradientUnits="userSpaceOnUse">
    <stop offset="0" stop-color="#ffeda9" />
    <stop offset=".037" stop-color="#fff9ae" />
    <stop offset=".331" stop-color="#fffbce" />
    <stop offset=".626" stop-color="#fffeee" />
    <stop offset=".841" stop-color="#fffcdd" />
    <stop offset="1" stop-color="#fffcdf" />
  </linearGradient><linearGradient id="thomas-cook_m" x1="2.664" x2="3.838" y1="9.901" y2="8.746" gradientUnits="userSpaceOnUse">
    <stop offset="0" stop-color="#f58220" stop-opacity=".41" />
    <stop offset=".202" stop-color="#f8a65f" stop-opacity=".327" />
    <stop offset=".404" stop-color="#fac598" stop-opacity=".243" />
    <stop offset=".59" stop-color="#fcdec4" stop-opacity=".166" />
    <stop offset=".756" stop-color="#fef0e4" stop-opacity=".097" />
    <stop offset=".895" stop-color="#fffbf8" stop-opacity=".039" />
    <stop offset=".991" stop-color="#fff" stop-opacity="0" />
  </linearGradient><clipPath id="thomas-cook_o">
    <use overflow="visible" xlink:href="#thomas-cook_n" />
  </clipPath><radialGradient id="thomas-cook_p" cx="-90.627" cy="12.252" r="1.784" gradientTransform="matrix(1.78 0 0 1.8088 168.998 -12.125)" gradientUnits="userSpaceOnUse">
      <stop offset=".1" stop-color="#ffe100" stop-opacity=".82" />
      <stop offset=".611" stop-color="#ffea00" stop-opacity=".302" />
      <stop offset=".908" stop-color="#fff200" stop-opacity="0" />
    </radialGradient><linearGradient id="thomas-cook_q" x1="5.404" x2="5.476" y1="12.62" y2="12.551" gradientUnits="userSpaceOnUse">
    <stop offset="0" stop-color="#ffce40" stop-opacity="0" />
    <stop offset=".308" stop-color="#ffdd8a" stop-opacity=".165" />
    <stop offset=".466" stop-color="#ffe4ab" stop-opacity=".25" />
    <stop offset="1" stop-color="#ffdb52" stop-opacity="0" />
  </linearGradient><mask id="thomas-cook_u" width="4.2" height="4.4" x="6.8" y="8.2" maskUnits="userSpaceOnUse">
    <g filter="url(#thomas-cook_r)">
      <linearGradient id="thomas-cook_s" x1="170.217" x2="171.972" y1="-105.854" y2="-105.854" gradientTransform="matrix(.5382 -.5087 .5362 .5673 -26.303 157.622)" gradientUnits="userSpaceOnUse">
        <stop offset="0" />
        <stop offset=".062" stop-color="#040404" />
        <stop offset=".121" stop-color="#0f0f0f" />
        <stop offset=".18" stop-color="#232323" />
        <stop offset=".238" stop-color="#3e3e3e" />
        <stop offset=".296" stop-color="#626262" />
        <stop offset=".354" stop-color="#8d8d8d" />
        <stop offset=".412" stop-color="silver" />
        <stop offset=".468" stop-color="#fafafa" />
        <stop offset=".472" stop-color="#fff" />
        <stop offset=".517" stop-color="#f5f5f5" />
        <stop offset=".593" stop-color="#dbdbdb" />
        <stop offset=".69" stop-color="#b0b0b0" />
        <stop offset=".804" stop-color="#757575" />
        <stop offset=".932" stop-color="#2b2b2b" />
        <stop offset="1" />
      </linearGradient>
      <path fill="url(#thomas-cook_s)" d="M11.2 12l-.9.8-3.5-3.7.9-.9z" />
    </g>
  </mask><linearGradient id="thomas-cook_s" x1="170.217" x2="171.972" y1="-105.854" y2="-105.854" gradientTransform="matrix(.5382 -.5087 .5362 .5673 -26.303 157.622)" gradientUnits="userSpaceOnUse">
        <stop offset="0" />
        <stop offset=".062" stop-color="#040404" />
        <stop offset=".121" stop-color="#0f0f0f" />
        <stop offset=".18" stop-color="#232323" />
        <stop offset=".238" stop-color="#3e3e3e" />
        <stop offset=".296" stop-color="#626262" />
        <stop offset=".354" stop-color="#8d8d8d" />
        <stop offset=".412" stop-color="silver" />
        <stop offset=".468" stop-color="#fafafa" />
        <stop offset=".472" stop-color="#fff" />
        <stop offset=".517" stop-color="#f5f5f5" />
        <stop offset=".593" stop-color="#dbdbdb" />
        <stop offset=".69" stop-color="#b0b0b0" />
        <stop offset=".804" stop-color="#757575" />
        <stop offset=".932" stop-color="#2b2b2b" />
        <stop offset="1" />
      </linearGradient><linearGradient id="thomas-cook_t" x1="171.089" x2="171.089" y1="-109.127" y2="-102.906" gradientTransform="matrix(.5382 -.5087 .5362 .5673 -26.303 157.622)" gradientUnits="userSpaceOnUse">
    <stop offset="0" stop-color="#fff200" stop-opacity=".39" />
    <stop offset=".902" stop-color="#fff200" stop-opacity="0" />
  </linearGradient><mask id="thomas-cook_y" width="3.2" height="5.2" x="6.6" y="8.4" maskUnits="userSpaceOnUse">
    <g filter="url(#thomas-cook_v)">
      <linearGradient id="thomas-cook_w" x1="-46.323" x2="-44.589" y1="12.016" y2="12.016" gradientTransform="matrix(.6716 -.3121 .3271 .7039 34.844 -11.698)" gradientUnits="userSpaceOnUse">
        <stop offset="0" />
        <stop offset=".062" stop-color="#040404" />
        <stop offset=".121" stop-color="#0f0f0f" />
        <stop offset=".18" stop-color="#232323" />
        <stop offset=".238" stop-color="#3e3e3e" />
        <stop offset=".296" stop-color="#626262" />
        <stop offset=".354" stop-color="#8d8d8d" />
        <stop offset=".412" stop-color="silver" />
        <stop offset=".468" stop-color="#fafafa" />
        <stop offset=".472" stop-color="#fff" />
        <stop offset=".517" stop-color="#f5f5f5" />
        <stop offset=".593" stop-color="#dbdbdb" />
        <stop offset=".69" stop-color="#b0b0b0" />
        <stop offset=".804" stop-color="#757575" />
        <stop offset=".932" stop-color="#2b2b2b" />
        <stop offset="1" />
      </linearGradient>
      <path fill="url(#thomas-cook_w)" d="M9.9 13l-1.2.5-2.1-4.6 1.2-.5z" />
    </g>
  </mask><linearGradient id="thomas-cook_w" x1="-46.323" x2="-44.589" y1="12.016" y2="12.016" gradientTransform="matrix(.6716 -.3121 .3271 .7039 34.844 -11.698)" gradientUnits="userSpaceOnUse">
        <stop offset="0" />
        <stop offset=".062" stop-color="#040404" />
        <stop offset=".121" stop-color="#0f0f0f" />
        <stop offset=".18" stop-color="#232323" />
        <stop offset=".238" stop-color="#3e3e3e" />
        <stop offset=".296" stop-color="#626262" />
        <stop offset=".354" stop-color="#8d8d8d" />
        <stop offset=".412" stop-color="silver" />
        <stop offset=".468" stop-color="#fafafa" />
        <stop offset=".472" stop-color="#fff" />
        <stop offset=".517" stop-color="#f5f5f5" />
        <stop offset=".593" stop-color="#dbdbdb" />
        <stop offset=".69" stop-color="#b0b0b0" />
        <stop offset=".804" stop-color="#757575" />
        <stop offset=".932" stop-color="#2b2b2b" />
        <stop offset="1" />
      </linearGradient><linearGradient id="thomas-cook_x" x1="-45.458" x2="-45.458" y1="8.73" y2="15.315" gradientTransform="matrix(.6716 -.3121 .3271 .7039 34.844 -11.698)" gradientUnits="userSpaceOnUse">
    <stop offset="0" stop-color="#fff200" stop-opacity=".39" />
    <stop offset=".902" stop-color="#fff200" stop-opacity="0" />
  </linearGradient><mask id="thomas-cook_B" width="4.7" height="2.2" x="3.3" y="7.4" maskUnits="userSpaceOnUse">
    <g filter="url(#thomas-cook_z)">
      <linearGradient id="thomas-cook_A" x1="-213.576" x2="-211.865" y1="428.731" y2="428.731" gradientTransform="matrix(-.0868 1.2976 -.647 -.0434 264.39 303.318)" gradientUnits="userSpaceOnUse">
        <stop offset="0" />
        <stop offset=".062" stop-color="#040404" />
        <stop offset=".121" stop-color="#0f0f0f" />
        <stop offset=".18" stop-color="#232323" />
        <stop offset=".238" stop-color="#3e3e3e" />
        <stop offset=".296" stop-color="#626262" />
        <stop offset=".354" stop-color="#8d8d8d" />
        <stop offset=".412" stop-color="silver" />
        <stop offset=".468" stop-color="#fafafa" />
        <stop offset=".472" stop-color="#fff" />
        <stop offset=".517" stop-color="#f5f5f5" />
        <stop offset=".593" stop-color="#dbdbdb" />
        <stop offset=".69" stop-color="#b0b0b0" />
        <stop offset=".804" stop-color="#757575" />
        <stop offset=".932" stop-color="#2b2b2b" />
        <stop offset="1" />
      </linearGradient>
      <path fill="url(#thomas-cook_A)" d="M3.3 9.6l.1-2.2 4.2.3-.1 2.2z" />
    </g>
  </mask><linearGradient id="thomas-cook_A" x1="-213.576" x2="-211.865" y1="428.731" y2="428.731" gradientTransform="matrix(-.0868 1.2976 -.647 -.0434 264.39 303.318)" gradientUnits="userSpaceOnUse">
        <stop offset="0" />
        <stop offset=".062" stop-color="#040404" />
        <stop offset=".121" stop-color="#0f0f0f" />
        <stop offset=".18" stop-color="#232323" />
        <stop offset=".238" stop-color="#3e3e3e" />
        <stop offset=".296" stop-color="#626262" />
        <stop offset=".354" stop-color="#8d8d8d" />
        <stop offset=".412" stop-color="silver" />
        <stop offset=".468" stop-color="#fafafa" />
        <stop offset=".472" stop-color="#fff" />
        <stop offset=".517" stop-color="#f5f5f5" />
        <stop offset=".593" stop-color="#dbdbdb" />
        <stop offset=".69" stop-color="#b0b0b0" />
        <stop offset=".804" stop-color="#757575" />
        <stop offset=".932" stop-color="#2b2b2b" />
        <stop offset="1" />
      </linearGradient><linearGradient id="thomas-cook_C" x1="-212.724" x2="-212.724" y1="424.877" y2="431.985" gradientTransform="matrix(-.0868 1.2976 -.647 -.0434 264.39 303.318)" gradientUnits="userSpaceOnUse">
      <stop offset="0" stop-color="#fff" />
      <stop offset="1" stop-color="#fff" stop-opacity="0" />
    </linearGradient><mask id="thomas-cook_F" width="3.8" height="3.8" x="4.8" y="5.5" maskUnits="userSpaceOnUse">
    <g filter="url(#thomas-cook_D)">
      <linearGradient id="thomas-cook_E" x1="-189.095" x2="-187.504" y1="527.444" y2="527.444" gradientTransform="matrix(-1.0585 .67 -.4177 -.66 27.562 481.147)" gradientUnits="userSpaceOnUse">
        <stop offset="0" />
        <stop offset=".062" stop-color="#040404" />
        <stop offset=".121" stop-color="#0f0f0f" />
        <stop offset=".18" stop-color="#232323" />
        <stop offset=".238" stop-color="#3e3e3e" />
        <stop offset=".296" stop-color="#626262" />
        <stop offset=".354" stop-color="#8d8d8d" />
        <stop offset=".412" stop-color="silver" />
        <stop offset=".468" stop-color="#fafafa" />
        <stop offset=".472" stop-color="#fff" />
        <stop offset=".517" stop-color="#f5f5f5" />
        <stop offset=".593" stop-color="#dbdbdb" />
        <stop offset=".69" stop-color="#b0b0b0" />
        <stop offset=".804" stop-color="#757575" />
        <stop offset=".932" stop-color="#2b2b2b" />
        <stop offset="1" />
      </linearGradient>
      <path fill="url(#thomas-cook_E)" d="M4.5 5.3l1.6-1L8.4 8 7 9.4z" />
    </g>
  </mask><linearGradient id="thomas-cook_E" x1="-189.095" x2="-187.504" y1="527.444" y2="527.444" gradientTransform="matrix(-1.0585 .67 -.4177 -.66 27.562 481.147)" gradientUnits="userSpaceOnUse">
        <stop offset="0" />
        <stop offset=".062" stop-color="#040404" />
        <stop offset=".121" stop-color="#0f0f0f" />
        <stop offset=".18" stop-color="#232323" />
        <stop offset=".238" stop-color="#3e3e3e" />
        <stop offset=".296" stop-color="#626262" />
        <stop offset=".354" stop-color="#8d8d8d" />
        <stop offset=".412" stop-color="silver" />
        <stop offset=".468" stop-color="#fafafa" />
        <stop offset=".472" stop-color="#fff" />
        <stop offset=".517" stop-color="#f5f5f5" />
        <stop offset=".593" stop-color="#dbdbdb" />
        <stop offset=".69" stop-color="#b0b0b0" />
        <stop offset=".804" stop-color="#757575" />
        <stop offset=".932" stop-color="#2b2b2b" />
        <stop offset="1" />
      </linearGradient><linearGradient id="thomas-cook_G" x1="-188.464" x2="-188.464" y1="524.429" y2="530.195" gradientTransform="matrix(-1.0585 .67 -.4177 -.66 27.562 481.147)" gradientUnits="userSpaceOnUse">
      <stop offset="0" stop-color="#fff" />
      <stop offset="1" stop-color="#fff" stop-opacity="0" />
    </linearGradient><mask id="thomas-cook_K" width="2" height="3.6" x="5.9" y="8.5" maskUnits="userSpaceOnUse">
    <g filter="url(#thomas-cook_H)">
      <linearGradient id="thomas-cook_I" x1="-205.111" x2="-203.418" y1="-70.786" y2="-70.786" gradientTransform="matrix(.8808 .1309 -.0767 .5163 181.398 73.645)" gradientUnits="userSpaceOnUse">
        <stop offset="0" />
        <stop offset=".145" stop-color="#4d4d4d" />
        <stop offset=".391" stop-color="#ccc" />
        <stop offset=".5" stop-color="#fff" />
        <stop offset=".582" stop-color="#cecece" />
        <stop offset=".736" stop-color="#777" />
        <stop offset=".862" stop-color="#373737" />
        <stop offset=".953" stop-color="#0f0f0f" />
        <stop offset="1" />
      </linearGradient>
      <path fill="url(#thomas-cook_I)" d="M7.4 12.2l-1.5-.3.5-3.4 1.5.3z" />
    </g>
  </mask><linearGradient id="thomas-cook_I" x1="-205.111" x2="-203.418" y1="-70.786" y2="-70.786" gradientTransform="matrix(.8808 .1309 -.0767 .5163 181.398 73.645)" gradientUnits="userSpaceOnUse">
        <stop offset="0" />
        <stop offset=".145" stop-color="#4d4d4d" />
        <stop offset=".391" stop-color="#ccc" />
        <stop offset=".5" stop-color="#fff" />
        <stop offset=".582" stop-color="#cecece" />
        <stop offset=".736" stop-color="#777" />
        <stop offset=".862" stop-color="#373737" />
        <stop offset=".953" stop-color="#0f0f0f" />
        <stop offset="1" />
      </linearGradient><linearGradient id="thomas-cook_J" x1="-204.266" x2="-204.266" y1="-74.079" y2="-67.48" gradientTransform="matrix(.8808 .1309 -.0767 .5163 181.398 73.645)" gradientUnits="userSpaceOnUse">
    <stop offset="0" stop-color="#faf181" />
    <stop offset=".131" stop-color="#faf17b" stop-opacity=".855" />
    <stop offset=".302" stop-color="#fbf16b" stop-opacity=".665" />
    <stop offset=".496" stop-color="#fcf250" stop-opacity=".45" />
    <stop offset=".704" stop-color="#fdf22a" stop-opacity=".219" />
    <stop offset=".902" stop-color="#fff200" stop-opacity="0" />
  </linearGradient><mask id="thomas-cook_N" width="5.2" height="1.5" x="7.2" y="7.8" maskUnits="userSpaceOnUse">
    <g filter="url(#thomas-cook_L)">
      <linearGradient id="thomas-cook_M" x1="272.92" x2="274.635" y1="174.733" y2="174.733" gradientTransform="matrix(-.0422 -.7227 .795 -.0465 -117.567 214.526)" gradientUnits="userSpaceOnUse">
        <stop offset="0" />
        <stop offset=".145" stop-color="#4d4d4d" />
        <stop offset=".391" stop-color="#ccc" />
        <stop offset=".5" stop-color="#fff" />
        <stop offset=".582" stop-color="#cecece" />
        <stop offset=".736" stop-color="#777" />
        <stop offset=".862" stop-color="#373737" />
        <stop offset=".953" stop-color="#0f0f0f" />
        <stop offset="1" />
      </linearGradient>
      <path fill="url(#thomas-cook_M)" d="M12.3 7.8l.1 1.2-5.1.3-.1-1.2z" />
    </g>
  </mask><linearGradient id="thomas-cook_M" x1="272.92" x2="274.635" y1="174.733" y2="174.733" gradientTransform="matrix(-.0422 -.7227 .795 -.0465 -117.567 214.526)" gradientUnits="userSpaceOnUse">
        <stop offset="0" />
        <stop offset=".145" stop-color="#4d4d4d" />
        <stop offset=".391" stop-color="#ccc" />
        <stop offset=".5" stop-color="#fff" />
        <stop offset=".582" stop-color="#cecece" />
        <stop offset=".736" stop-color="#777" />
        <stop offset=".862" stop-color="#373737" />
        <stop offset=".953" stop-color="#0f0f0f" />
        <stop offset="1" />
      </linearGradient><linearGradient id="thomas-cook_O" x1="273.776" x2="273.776" y1="171.493" y2="177.986" gradientTransform="matrix(-.0422 -.7227 .795 -.0465 -117.567 214.526)" gradientUnits="userSpaceOnUse">
      <stop offset=".012" stop-color="#ffe300" />
      <stop offset=".939" stop-color="#fff200" stop-opacity="0" />
    </linearGradient><mask id="thomas-cook_S" width="4" height="3.7" x="6.2" y="7.5" maskUnits="userSpaceOnUse">
    <g filter="url(#thomas-cook_P)">
      <linearGradient id="thomas-cook_Q" x1="39.526" x2="40.651" y1="105.879" y2="105.879" gradientTransform="matrix(.2867 -2.3939 .5868 .143 -65.22 89.753)" gradientUnits="userSpaceOnUse">
        <stop offset="0" />
        <stop offset=".145" stop-color="#4d4d4d" />
        <stop offset=".391" stop-color="#ccc" />
        <stop offset=".5" stop-color="#fff" />
        <stop offset=".543" stop-color="#f5f5f5" />
        <stop offset=".617" stop-color="#d9d9d9" />
        <stop offset=".713" stop-color="#ababab" />
        <stop offset=".828" stop-color="#6c6c6c" />
        <stop offset=".957" stop-color="#1c1c1c" />
        <stop offset="1" />
      </linearGradient>
      <path fill="url(#thomas-cook_Q)" d="M10.2 8l-.5 2.6-3.1-.7.9-2.6z" />
    </g>
  </mask><linearGradient id="thomas-cook_Q" x1="39.526" x2="40.651" y1="105.879" y2="105.879" gradientTransform="matrix(.2867 -2.3939 .5868 .143 -65.22 89.753)" gradientUnits="userSpaceOnUse">
        <stop offset="0" />
        <stop offset=".145" stop-color="#4d4d4d" />
        <stop offset=".391" stop-color="#ccc" />
        <stop offset=".5" stop-color="#fff" />
        <stop offset=".543" stop-color="#f5f5f5" />
        <stop offset=".617" stop-color="#d9d9d9" />
        <stop offset=".713" stop-color="#ababab" />
        <stop offset=".828" stop-color="#6c6c6c" />
        <stop offset=".957" stop-color="#1c1c1c" />
        <stop offset="1" />
      </linearGradient><linearGradient id="thomas-cook_R" x1="34.014" x2="34.014" y1="44.296" y2="49.16" gradientTransform="matrix(.7777 -2.2495 .574 .1985 -44.892 76.362)" gradientUnits="userSpaceOnUse">
    <stop offset="0" stop-color="#fff20f" />
    <stop offset=".548" stop-color="#fff209" stop-opacity=".452" />
    <stop offset="1" stop-color="#fff200" stop-opacity="0" />
  </linearGradient><mask id="thomas-cook_W" width="3" height="2.9" x="6.2" y="7.9" maskUnits="userSpaceOnUse">
    <g filter="url(#thomas-cook_T)">
      <linearGradient id="thomas-cook_U" x1="-56.606" x2="-55.521" y1="-121.894" y2="-121.894" gradientTransform="matrix(2.2556 -.6111 .1431 .5284 151.59 39.48)" gradientUnits="userSpaceOnUse">
        <stop offset="0" />
        <stop offset=".017" stop-color="#131313" />
        <stop offset=".072" stop-color="#4a4a4a" />
        <stop offset=".129" stop-color="#7a7a7a" />
        <stop offset=".186" stop-color="#a3a3a3" />
        <stop offset=".244" stop-color="#c4c4c4" />
        <stop offset=".304" stop-color="#dedede" />
        <stop offset=".365" stop-color="#f0f0f0" />
        <stop offset=".429" stop-color="#fbfbfb" />
        <stop offset=".5" stop-color="#fff" />
        <stop offset=".559" stop-color="#fbfbfb" />
        <stop offset=".621" stop-color="#eee" />
        <stop offset=".685" stop-color="#d9d9d9" />
        <stop offset=".75" stop-color="#bbb" />
        <stop offset=".816" stop-color="#959595" />
        <stop offset=".883" stop-color="#666" />
        <stop offset=".949" stop-color="#2f2f2f" />
        <stop offset="1" />
      </linearGradient>
      <path fill="url(#thomas-cook_U)" d="M9.2 10.1l-2.4.7-.6-2.3 2.4-.6z" />
    </g>
  </mask><linearGradient id="thomas-cook_U" x1="-56.606" x2="-55.521" y1="-121.894" y2="-121.894" gradientTransform="matrix(2.2556 -.6111 .1431 .5284 151.59 39.48)" gradientUnits="userSpaceOnUse">
        <stop offset="0" />
        <stop offset=".017" stop-color="#131313" />
        <stop offset=".072" stop-color="#4a4a4a" />
        <stop offset=".129" stop-color="#7a7a7a" />
        <stop offset=".186" stop-color="#a3a3a3" />
        <stop offset=".244" stop-color="#c4c4c4" />
        <stop offset=".304" stop-color="#dedede" />
        <stop offset=".365" stop-color="#f0f0f0" />
        <stop offset=".429" stop-color="#fbfbfb" />
        <stop offset=".5" stop-color="#fff" />
        <stop offset=".559" stop-color="#fbfbfb" />
        <stop offset=".621" stop-color="#eee" />
        <stop offset=".685" stop-color="#d9d9d9" />
        <stop offset=".75" stop-color="#bbb" />
        <stop offset=".816" stop-color="#959595" />
        <stop offset=".883" stop-color="#666" />
        <stop offset=".949" stop-color="#2f2f2f" />
        <stop offset="1" />
      </linearGradient><linearGradient id="thomas-cook_V" x1="-56.065" x2="-56.065" y1="-124.017" y2="-119.764" gradientTransform="matrix(2.2556 -.6111 .1431 .5284 151.59 39.48)" gradientUnits="userSpaceOnUse">
    <stop offset="0" stop-color="#fd0" />
    <stop offset=".095" stop-color="#ffde06" stop-opacity=".905" />
    <stop offset=".22" stop-color="#ffe016" stop-opacity=".78" />
    <stop offset=".36" stop-color="#ffe431" stop-opacity=".64" />
    <stop offset=".513" stop-color="#ffe957" stop-opacity=".487" />
    <stop offset=".676" stop-color="#ffef88" stop-opacity=".324" />
    <stop offset=".843" stop-color="#fff7c2" stop-opacity=".157" />
    <stop offset="1" stop-color="#fff" stop-opacity="0" />
  </linearGradient><mask id="thomas-cook_aa" width="3.8" height="3.4" x="3.8" y="6.3" maskUnits="userSpaceOnUse">
    <g filter="url(#thomas-cook_X)">
      <linearGradient id="thomas-cook_Y" x1="-116.696" x2="-115.591" y1="432.776" y2="432.776" gradientTransform="matrix(-.9571 1.5006 -.6707 -.4278 184.814 367.488)" gradientUnits="userSpaceOnUse">
        <stop offset="0" />
        <stop offset=".017" stop-color="#131313" />
        <stop offset=".072" stop-color="#4a4a4a" />
        <stop offset=".129" stop-color="#7a7a7a" />
        <stop offset=".186" stop-color="#a3a3a3" />
        <stop offset=".244" stop-color="#c4c4c4" />
        <stop offset=".304" stop-color="#dedede" />
        <stop offset=".365" stop-color="#f0f0f0" />
        <stop offset=".429" stop-color="#fbfbfb" />
        <stop offset=".5" stop-color="#fff" />
        <stop offset=".559" stop-color="#fbfbfb" />
        <stop offset=".621" stop-color="#eee" />
        <stop offset=".685" stop-color="#d9d9d9" />
        <stop offset=".75" stop-color="#bbb" />
        <stop offset=".816" stop-color="#959595" />
        <stop offset=".883" stop-color="#666" />
        <stop offset=".949" stop-color="#2f2f2f" />
        <stop offset="1" />
      </linearGradient>
      <path fill="url(#thomas-cook_Y)" d="M3.8 8l1-1.7 2.8 1.8-1 1.7z" />
    </g>
  </mask><linearGradient id="thomas-cook_Y" x1="-116.696" x2="-115.591" y1="432.776" y2="432.776" gradientTransform="matrix(-.9571 1.5006 -.6707 -.4278 184.814 367.488)" gradientUnits="userSpaceOnUse">
        <stop offset="0" />
        <stop offset=".017" stop-color="#131313" />
        <stop offset=".072" stop-color="#4a4a4a" />
        <stop offset=".129" stop-color="#7a7a7a" />
        <stop offset=".186" stop-color="#a3a3a3" />
        <stop offset=".244" stop-color="#c4c4c4" />
        <stop offset=".304" stop-color="#dedede" />
        <stop offset=".365" stop-color="#f0f0f0" />
        <stop offset=".429" stop-color="#fbfbfb" />
        <stop offset=".5" stop-color="#fff" />
        <stop offset=".559" stop-color="#fbfbfb" />
        <stop offset=".621" stop-color="#eee" />
        <stop offset=".685" stop-color="#d9d9d9" />
        <stop offset=".75" stop-color="#bbb" />
        <stop offset=".816" stop-color="#959595" />
        <stop offset=".883" stop-color="#666" />
        <stop offset=".949" stop-color="#2f2f2f" />
        <stop offset="1" />
      </linearGradient><linearGradient id="thomas-cook_Z" x1="-116.145" x2="-116.145" y1="430.685" y2="434.875" gradientTransform="matrix(-.9571 1.5006 -.6707 -.4278 184.814 367.488)" gradientUnits="userSpaceOnUse">
    <stop offset="0" stop-color="#faf181" />
    <stop offset=".147" stop-color="#faf287" stop-opacity=".853" />
    <stop offset=".34" stop-color="#fbf497" stop-opacity=".66" />
    <stop offset=".557" stop-color="#fcf7b2" stop-opacity=".443" />
    <stop offset=".791" stop-color="#fdfbd7" stop-opacity=".209" />
    <stop offset="1" stop-color="#fff" stop-opacity="0" />
  </linearGradient><radialGradient id="thomas-cook_ab" cx="7.156" cy="8.674" r="1.575" gradientUnits="userSpaceOnUse">
    <stop offset="0" stop-color="#fff" stop-opacity=".93" />
    <stop offset="1" stop-color="#fff" stop-opacity="0" />
  </radialGradient><symbol viewBox="0 0 70 20" id="tui"> 
  <path fill="#fff" fill-rule="evenodd" d="M3 1.5h64v17H3z" clip-rule="evenodd" />
  <path fill="#5bcbf5" d="M0 0h70v20H0z" />
  <path fill="#da2128" d="M51.7 15.4c0-.1.1-.1 0 0l.1-.2v-5-.2l-.1-.1-.5-.1-.5.1-.1.1v5.2l.1.2.5.1.5-.1zm-3.7 0l.7-.4.4-.6.1-.8v-3.5l-.1-.2-.5-.1-.5.1-.1.1v3.7l-.1.4-.3.4-.6.1-.5-.1-.3-.2-.2-.3-.1-.4v-3.5l-.1-.2-.5-.1-.5.1-.1.1v3.7l.1.8.4.6.7.4 1 .1 1.1-.2zm-6.2 0c.1-.1.1-.1 0 0l.1-.2v-4.3h1.4l.1-.1.1-.3v-.3-.1l-.1-.1h-.1H39l-.1.1-.1.3v.5l.1.1H40.5v4.3l.1.2.5.1.7-.2zM19.1 6.7h4.4c.4 0 .8.1.9.7.1.7.1 1.1-.7 1.2l-1.4.1c1 6.4 6.9 8.5 10.1 1.6.5-1.1.7-1.3 1.3-1.2.8.2.9.6.5 1.7-2.8 8.5-12.1 9.3-14-2l-1.1.2c-.9.1-.9-.7-.9-1.1 0-.9.3-1.2.9-1.2zM35 2.6c.9 0 1.6.7 1.6 1.6 0 .9-.7 1.6-1.6 1.6-.9 0-1.6-.7-1.6-1.6-.1-.8.7-1.6 1.6-1.6z" />
</symbol></svg>